<svg xmlns="http://www.w3.org/2000/svg" viewBox="0 0 1200 630" width="1200" height="630">
  <defs>
    <linearGradient id="bg" x1="0" y1="0" x2="1" y2="1">
      <stop offset="0" stop-color="#1e1210"/><stop offset="1" stop-color="#0e0a09"/>
    </linearGradient>
    <radialGradient id="glow" cx="0.72" cy="0.5" r="0.5">
      <stop offset="0" stop-color="#ff4d42" stop-opacity="0.35"/><stop offset="1" stop-color="#ff4d42" stop-opacity="0"/>
    </radialGradient>
    <linearGradient id="body" x1="0" y1="0" x2="0" y2="1">
      <stop offset="0" stop-color="#ff5a4a"/><stop offset="1" stop-color="#c0221c"/>
    </linearGradient>
  </defs>
  <rect width="1200" height="630" fill="url(#bg)"/>
  <rect width="1200" height="630" fill="url(#glow)"/>

  <!-- wordmark -->
  <text x="90" y="300" font-family="system-ui, Segoe UI, sans-serif" font-size="128" font-weight="800" letter-spacing="-4">
    <tspan fill="#f6ede8">Red</tspan><tspan fill="#ff4d42">domo</tspan>
  </text>
  <text x="96" y="372" font-family="system-ui, Segoe UI, sans-serif" font-size="40" font-weight="500" fill="#b39c92">Good games. No clutter.</text>
  <text x="96" y="430" font-family="ui-monospace, monospace" font-size="24" letter-spacing="3" fill="#8a7268">PLAY INSTANTLY · FREE · NO DOWNLOADS</text>

  <!-- mascot -->
  <g transform="translate(830 150) scale(1.7)">
    <rect x="46" y="188" width="38" height="24" rx="9" fill="#a81d18"/>
    <rect x="116" y="188" width="38" height="24" rx="9" fill="#a81d18"/>
    <rect x="6" y="96" width="26" height="60" rx="13" fill="#cf261f"/>
    <rect x="168" y="96" width="26" height="60" rx="13" fill="#cf261f"/>
    <rect x="26" y="24" width="148" height="172" rx="30" fill="url(#body)"/>
    <ellipse cx="74" cy="78" rx="15" ry="18" fill="#fdf3ec"/>
    <ellipse cx="126" cy="78" rx="15" ry="18" fill="#fdf3ec"/>
    <circle cx="77" cy="82" r="7.5" fill="#1c0b09"/>
    <circle cx="123" cy="82" r="7.5" fill="#1c0b09"/>
    <rect x="52" y="112" width="96" height="52" rx="12" fill="#2a0806"/>
    <path d="M52 112 L66 134 L80 112 L94 134 L108 112 L122 134 L136 112 L148 112 L148 118 L52 118 Z" fill="#fdf3ec"/>
    <path d="M52 164 L66 142 L80 164 L94 142 L108 164 L122 142 L136 164 L148 164 L148 158 L52 158 Z" fill="#fdf3ec"/>
    <ellipse cx="100" cy="156" rx="16" ry="9" fill="#ff6f79"/>
  </g>
</svg>
