<svg xmlns="http://www.w3.org/2000/svg" viewBox="0 0 320 320">
  <defs>
    <linearGradient id="aowsky" x1="0" y1="0" x2="0" y2="1">
      <stop offset="0" stop-color="#241f38"/><stop offset="1" stop-color="#453a5a"/>
    </linearGradient>
  </defs>
  <rect width="320" height="320" fill="url(#aowsky)"/>
  <g fill="#ffffff" opacity=".5">
    <circle cx="40" cy="40" r="1.6"/><circle cx="90" cy="70" r="1.2"/><circle cx="260" cy="50" r="1.6"/>
    <circle cx="220" cy="90" r="1.2"/>
  </g>
  <rect y="230" width="320" height="90" fill="#2a2318"/>
  <rect y="230" width="320" height="6" fill="#3d3420"/>
  <!-- player base -->
  <rect x="20" y="188" width="52" height="48" fill="#5c4f3d"/>
  <rect x="20" y="188" width="52" height="8" fill="#7a6a52"/>
  <rect x="60" y="168" width="4" height="22" fill="#3a8fd0"/>
  <polygon points="64,170 82,176 64,182" fill="#3a8fd0"/>
  <!-- enemy base -->
  <rect x="248" y="178" width="52" height="58" fill="#5c4f3d"/>
  <rect x="248" y="178" width="52" height="8" fill="#7a6a52"/>
  <rect x="252" y="158" width="4" height="22" fill="#d0503a"/>
  <polygon points="252,160 234,166 252,172" fill="#d0503a"/>
  <!-- units -->
  <g>
    <rect x="105" y="205" width="18" height="26" fill="#215d8f"/>
    <rect x="105" y="205" width="18" height="8" fill="#3a8fd0"/>
    <circle cx="114" cy="198" r="8" fill="#e8c9a8"/>
  </g>
  <g>
    <rect x="140" y="210" width="16" height="22" fill="#215d8f"/>
    <rect x="140" y="210" width="16" height="7" fill="#3a8fd0"/>
    <circle cx="148" cy="204" r="7" fill="#e8c9a8"/>
  </g>
  <g>
    <rect x="185" y="208" width="17" height="24" fill="#8f3323"/>
    <rect x="185" y="208" width="17" height="7" fill="#d0503a"/>
    <circle cx="193" cy="201" r="7.5" fill="#e8c9a8"/>
  </g>
  <g>
    <rect x="215" y="204" width="18" height="27" fill="#8f3323"/>
    <rect x="215" y="204" width="18" height="8" fill="#d0503a"/>
    <circle cx="224" cy="197" r="8" fill="#e8c9a8"/>
  </g>
</svg>
