<svg xmlns="http://www.w3.org/2000/svg" viewBox="0 0 320 320">
  <defs>
    <radialGradient id="asmar" cx="0.4" cy="0.35" r="0.75"><stop offset="0" stop-color="#f2f5f8"/><stop offset="0.6" stop-color="#c2cad2"/><stop offset="1" stop-color="#8a949e"/></radialGradient>
    <linearGradient id="asbg" x1="0" y1="0" x2="1" y2="1"><stop offset="0" stop-color="#141c1e"/><stop offset="1" stop-color="#0c1112"/></linearGradient>
  </defs>
  <rect width="320" height="320" fill="url(#asbg)"/>
  <g fill="#2a8f7c">
    <rect x="36" y="36" width="248" height="12" rx="4"/>
    <rect x="36" y="272" width="248" height="12" rx="4"/>
    <rect x="36" y="36" width="12" height="248" rx="4"/>
    <rect x="272" y="36" width="12" height="248" rx="4"/>
    <rect x="96" y="36" width="12" height="120" rx="4"/>
    <rect x="96" y="144" width="90" height="12" rx="4"/>
    <rect x="160" y="96" width="12" height="90" rx="4"/>
    <rect x="212" y="96" width="12" height="130" rx="4"/>
    <rect x="96" y="212" width="130" height="12" rx="4"/>
    <rect x="96" y="212" width="12" height="60" rx="4"/>
  </g>
  <g fill="#4ec7ad" opacity=".5">
    <rect x="36" y="36" width="248" height="3" rx="1.5"/>
    <rect x="96" y="144" width="90" height="3" rx="1.5"/>
    <rect x="96" y="212" width="130" height="3" rx="1.5"/>
  </g>
  <!-- goal -->
  <rect x="238" y="238" width="28" height="28" rx="5" fill="#f2b53f"/>
  <rect x="244" y="244" width="16" height="16" rx="3" fill="#ffd77a"/>
  <!-- marble -->
  <circle cx="132" cy="184" r="20" fill="url(#asmar)"/>
  <circle cx="125" cy="177" r="6" fill="#ffffff" opacity=".8"/>
</svg>
