<svg xmlns="http://www.w3.org/2000/svg" viewBox="0 0 320 320">
  <defs><linearGradient id="cbbg" x1="0" y1="0" x2="1" y2="1"><stop offset="0" stop-color="#1a1220"/><stop offset="1" stop-color="#0f0a14"/></linearGradient></defs>
  <rect width="320" height="320" fill="url(#cbbg)"/>
  <text x="160" y="52" font-family="ui-monospace, monospace" font-size="20" font-weight="700" fill="#f2c53f" text-anchor="middle">candies: 4,096</text>
  <!-- candy chest -->
  <g transform="translate(112,148)">
    <rect x="0" y="24" width="96" height="60" rx="8" fill="#7a4a2c"/>
    <rect x="0" y="24" width="96" height="16" rx="8" fill="#9a6038"/>
    <rect x="-6" y="8" width="108" height="26" rx="9" fill="#8a5230"/>
    <rect x="42" y="8" width="12" height="32" rx="3" fill="#f2c53f"/>
    <circle cx="48" cy="48" r="6" fill="#f2c53f"/>
  </g>
  <!-- wrapped candies -->
  <g transform="translate(60,120) rotate(-15)"><ellipse rx="14" ry="10" fill="#ff5a8a"/><path d="M-14 0 L-24 -8 L-24 8 Z" fill="#ff5a8a"/><path d="M14 0 L24 -8 L24 8 Z" fill="#ff5a8a"/><ellipse rx="6" ry="5" fill="#ffa0c0"/></g>
  <g transform="translate(250,128) rotate(20)"><ellipse rx="14" ry="10" fill="#3fb56b"/><path d="M-14 0 L-24 -8 L-24 8 Z" fill="#3fb56b"/><path d="M14 0 L24 -8 L24 8 Z" fill="#3fb56b"/><ellipse rx="6" ry="5" fill="#8fe0a8"/></g>
  <g transform="translate(242,240) rotate(-10)"><ellipse rx="13" ry="9" fill="#4a9fe0"/><path d="M-13 0 L-22 -7 L-22 7 Z" fill="#4a9fe0"/><path d="M13 0 L22 -7 L22 7 Z" fill="#4a9fe0"/><ellipse rx="5" ry="4" fill="#a0d0f0"/></g>
  <g transform="translate(66,246) rotate(12)"><ellipse rx="13" ry="9" fill="#f2c53f"/><path d="M-13 0 L-22 -7 L-22 7 Z" fill="#f2c53f"/><path d="M13 0 L22 -7 L22 7 Z" fill="#f2c53f"/><ellipse rx="5" ry="4" fill="#ffe49a"/></g>
</svg>
