<svg xmlns="http://www.w3.org/2000/svg" viewBox="0 0 320 320">
  <defs>
    <linearGradient id="c4bg" x1="0" y1="0" x2="1" y2="1">
      <stop offset="0" stop-color="#241a14"/><stop offset="1" stop-color="#17110f"/>
    </linearGradient>
    <linearGradient id="c4board" x1="0" y1="0" x2="0" y2="1">
      <stop offset="0" stop-color="#3358b8"/><stop offset="1" stop-color="#264a9b"/>
    </linearGradient>
  </defs>
  <rect width="320" height="320" fill="url(#c4bg)"/>
  <rect x="40" y="52" width="240" height="216" rx="18" fill="url(#c4board)"/>
  <!-- empty holes: cols 64,112,160,208,256 rows 84,132,180,228 -->
  <g fill="#17110f">
    <circle cx="64" cy="84" r="20"/><circle cx="112" cy="84" r="20"/><circle cx="160" cy="84" r="20"/><circle cx="208" cy="84" r="20"/><circle cx="256" cy="84" r="20"/>
    <circle cx="64" cy="132" r="20"/><circle cx="112" cy="132" r="20"/><circle cx="160" cy="132" r="20"/><circle cx="208" cy="132" r="20"/><circle cx="256" cy="132" r="20"/>
    <circle cx="64" cy="180" r="20"/><circle cx="112" cy="180" r="20"/><circle cx="160" cy="180" r="20"/><circle cx="208" cy="180" r="20"/><circle cx="256" cy="180" r="20"/>
    <circle cx="64" cy="228" r="20"/><circle cx="112" cy="228" r="20"/><circle cx="160" cy="228" r="20"/><circle cx="208" cy="228" r="20"/><circle cx="256" cy="228" r="20"/>
  </g>
  <!-- discs -->
  <g>
    <!-- red -->
    <g fill="#ff5a4a">
      <circle cx="64" cy="228" r="18"/>
      <circle cx="112" cy="180" r="18"/>
      <circle cx="160" cy="228" r="18"/><circle cx="160" cy="132" r="18"/>
      <circle cx="208" cy="180" r="18"/><circle cx="208" cy="84" r="18"/>
      <circle cx="256" cy="228" r="18"/>
    </g>
    <!-- yellow -->
    <g fill="#f2c53f">
      <circle cx="112" cy="228" r="18"/>
      <circle cx="160" cy="180" r="18"/>
      <circle cx="208" cy="228" r="18"/><circle cx="208" cy="132" r="18"/>
    </g>
    <!-- soft top highlight on each disc -->
    <g fill="#fff" opacity=".18">
      <ellipse cx="64" cy="221" rx="11" ry="5"/><ellipse cx="112" cy="173" rx="11" ry="5"/>
      <ellipse cx="160" cy="221" rx="11" ry="5"/><ellipse cx="160" cy="125" rx="11" ry="5"/>
      <ellipse cx="208" cy="173" rx="11" ry="5"/><ellipse cx="208" cy="77" rx="11" ry="5"/>
      <ellipse cx="256" cy="221" rx="11" ry="5"/><ellipse cx="112" cy="221" rx="11" ry="5"/>
      <ellipse cx="160" cy="173" rx="11" ry="5"/><ellipse cx="208" cy="221" rx="11" ry="5"/>
      <ellipse cx="208" cy="125" rx="11" ry="5"/>
    </g>
  </g>
</svg>
