<svg xmlns="http://www.w3.org/2000/svg" viewBox="0 0 320 320">
  <defs><linearGradient id="drbg" x1="0" y1="0" x2="0" y2="1"><stop offset="0" stop-color="#232830"/><stop offset="1" stop-color="#14171d"/></linearGradient></defs>
  <rect width="320" height="320" fill="url(#drbg)"/>
  <!-- crescent moon -->
  <circle cx="252" cy="78" r="30" fill="#e8e2d4" opacity=".92"/>
  <circle cx="264" cy="70" r="27" fill="#232830"/>
  <!-- clouds -->
  <g fill="#3a414c"><ellipse cx="92" cy="82" rx="34" ry="12"/><ellipse cx="72" cy="76" rx="20" ry="10"/></g>
  <!-- ground -->
  <rect x="0" y="248" width="320" height="4" fill="#cfd4da"/>
  <g fill="#8a919c"><rect x="30" y="256" width="10" height="3"/><rect x="120" y="258" width="14" height="3"/><rect x="256" y="256" width="8" height="3"/><rect x="292" y="259" width="12" height="3"/></g>
  <!-- cactus -->
  <g fill="#9aa26a">
    <rect x="212" y="196" width="16" height="52" rx="5"/>
    <rect x="200" y="212" width="12" height="8" rx="4"/><rect x="200" y="212" width="8" height="24" rx="4"/>
    <rect x="228" y="204" width="12" height="8" rx="4"/><rect x="232" y="204" width="8" height="28" rx="4"/>
  </g>
  <!-- t-rex (pixel), light grey -->
  <g fill="#cfd4da">
    <rect x="70" y="196" width="18" height="10"/>
    <rect x="84" y="176" width="34" height="36"/>
    <rect x="112" y="160" width="30" height="26"/>
    <rect x="136" y="176" width="12" height="10"/>
    <rect x="90" y="212" width="8" height="20"/>
    <rect x="104" y="212" width="8" height="14"/>
    <rect x="116" y="192" width="8" height="5"/>
  </g>
  <rect x="128" y="166" width="5" height="5" fill="#232830"/>
</svg>
