<svg xmlns="http://www.w3.org/2000/svg" viewBox="0 0 320 320">
  <defs><linearGradient id="pcbg" x1="0" y1="0" x2="0" y2="1"><stop offset="0" stop-color="#eceae6"/><stop offset="1" stop-color="#d6d4cf"/></linearGradient></defs>
  <rect width="320" height="320" fill="url(#pcbg)"/>
  <!-- big paperclip -->
  <g fill="none" stroke="#8b929b" stroke-width="12" stroke-linecap="round" stroke-linejoin="round">
    <path d="M122 108 L122 208 a28 28 0 0 0 56 0 L178 98 a20 20 0 0 0 -40 0 L138 190"/>
  </g>
  <path d="M126 114 L126 206" fill="none" stroke="#b7bcc3" stroke-width="4" stroke-linecap="round"/>
  <!-- small clips -->
  <g fill="none" stroke="#a7adb5" stroke-width="5" stroke-linecap="round" stroke-linejoin="round" opacity=".85">
    <path d="M0 0 L0 34 a10 10 0 0 0 20 0 L20 -6 a7 7 0 0 0 -14 0 L6 26" transform="translate(232 226) rotate(24)"/>
    <path d="M0 0 L0 30 a9 9 0 0 0 18 0 L18 -6 a6 6 0 0 0 -12 0 L6 24" transform="translate(52 232) rotate(-18)"/>
  </g>
  <text x="160" y="58" font-family="ui-monospace, monospace" font-size="21" font-weight="700" fill="#5c6068" text-anchor="middle">Paperclips: 31,984</text>
</svg>
